<svg xmlns="http://www.w3.org/2000/svg" width="4561.111" height="1150.905" viewBox="0 0 4561.111 1150.905"><path fill-rule="evenodd" clip-rule="evenodd" fill="#E7AD22" d="M0 0h956.53v1150.905l-479.835-141.053L0 1150.905z"/><path fill-rule="evenodd" clip-rule="evenodd" fill="#202020" d="M497.731 142.299l-.459.45h.459v-.45zm-21.133 726.256L847.459 1061.2 476.598 956.502 104.471 1061.2l372.127-192.645zm220.93-438.382l125.081 110.818-124.657-89.501-.424-21.317zm8.48 425.358l.428 21.532 145.658 74.565-146.086-96.097zm-1.083-54.062l.432 21.494 142.906 75.304-143.338-96.798zm-1.101-55.406l140.714 100.323-140.283-78.835-.431-21.488zm-1.056-52.914l.428 21.448 137.658 80.515-138.086-101.963zm-1.063-53.375l135.469 104.084-135.042-82.665-.427-21.419zm-1.075-53.885l.427 21.459L833.53 693.08l-132.9-107.191zm-1.025-51.415l.427 21.375 129.791 85.635-130.218-107.01zm-1.044-52.6l.423 21.404 127.244 88.183-127.667-109.587zm-437.705-23.737L135.775 568.95l124.654-89.497.427-21.316zm-8.481 425.357l-146.086 96.097 145.659-74.565.427-21.532zm1.08-54.062L110.12 926.231l142.906-75.308.429-21.491zm1.106-55.405L113.846 874.35l140.287-78.837.428-21.486zm1.055-52.915l-.427 21.448-137.659 80.515 138.086-101.963zm1.064-53.379L121.214 771.822l135.034-82.665.432-21.424zm1.076-53.881l-.432 21.455-132.468 85.732 132.9-107.187zm1.025-51.419l-.424 21.374-129.794 85.639 130.218-107.013zm1.048-52.596l-.428 21.404-127.249 88.179 127.677-109.583zm220.604 255.801L275.426 865.65l-1.086 29.816 206.093-100.543V782.63l198.923 85.725-198.923-102.717zm0-75.988L678.28 803.897l-197.847-97.25v12.291L276.694 830.966l1.09-29.885L480.433 689.65zm0-75.921L280.181 735.35l-1.09 29.952 201.342-122.288v-12.293l195.004 106.096-195.004-123.088zm0-77.262L282.632 668.28l-1.098 30.017 198.9-132.545V553.46L673.49 672.203 480.433 536.467zm0-74.472l191.108 144.013-191.108-127.017v12.293l-196.541 142.34 1.102-30.084 195.439-141.545zm0-76.457l189.154 154.983L480.433 402.53v12.293l-194.153 153.5 1.098-30.156 193.055-152.629zm0-73.872L289.834 470.98l-1.103 30.21 191.702-160.239v-12.289l187.182 145.643-187.182-162.639zm0-75.375L292.18 406.606l-1.101 30.288 189.354-171.318v-12.291l183.29 155.777-183.29-172.771zm0-77.077l183.29 184.519-183.29-167.527v12.289L293.475 371.26l1.109-30.371 185.849-181.675z"/><path d="M1339.077 304.108v40.734h-90.595v35.249h48.557c20.547 0 35.732 4.658 45.568 13.965 9.836 9.315 14.75 24.671 14.75 46.084 0 21.41-5.135 36.902-15.404 46.481-9.572 9.051-24.543 13.572-44.914 13.572h-100.782V304.108h142.82zm-90.594 116.71v38.651h36.288c7.662 0 12.968-1.313 15.927-3.922 2.959-2.612 4.436-7.577 4.436-14.881 0-7.838-1.434-13.102-4.308-15.796-2.874-2.705-8.223-4.051-16.056-4.051h-36.287v-.001zm330.06-116.71v129.248h1.832l61.098-129.248h68.664v196.085h-49.606V371.212h-1.827l-58.75 128.981h-71.016V304.108h49.605zm360.615 0v150.661h50.656V304.108h52.215v150.661h50.656V304.108h52.223v196.085h-257.965V304.108h52.215zm434.774 0V378h15.663l50.389-73.892h63.188l-68.928 96.347 74.667 99.738h-64.746l-54.571-76.766h-15.663v76.766h-52.223V304.108h52.224zm347.035 42.825v36.024h83.549v36.298h-83.549v38.115h90.861v42.823h-143.084V304.108h141.25v42.825h-89.027zm320.147-42.825V378h15.663l50.391-73.892h63.186l-68.928 96.347 74.67 99.738h-64.749l-54.571-76.766h-15.663v76.766h-52.223V304.108h52.224zm461.918 70.498h-53.786v-7.574c0-7.133-3.137-12.269-9.4-15.399-5.05-2.441-12.616-3.661-22.716-3.661-14.1 0-23.237 2.697-27.416 8.097-3.482 4.522-5.221 14.272-5.221 29.243v30.549c0 16.36 1.482 26.888 4.444 31.588 4.172 6.62 13.572 9.921 28.194 9.921 12.01 0 20.014-1.213 24.022-3.651 5.392-3.309 8.094-10.271 8.094-20.892v-5.742h53.786v5.742c0 27.333-5.611 45.827-16.846 55.484-11.227 9.665-32.33 14.493-63.314 14.493-21.934 0-37.773-1.127-47.518-3.394-14.627-3.483-25.497-10.263-32.637-20.371-8.009-11.484-12.01-28.629-12.01-51.433v-50.653c0-30.114 8.18-50.562 24.543-61.362 13.059-8.693 35.596-13.044 67.622-13.044 27.501 0 47.352 4.428 59.535 13.308 13.751 9.921 20.625 26.981 20.625 51.176v7.575h-.001zm223.803-70.498V378h15.663l50.392-73.892h63.186l-68.928 96.347 74.67 99.738h-64.749l-54.571-76.766h-15.663v76.766h-52.223V304.108h52.223zm344.426 0v129.248h1.827l61.095-129.248h68.671v196.085h-49.614V371.212h-1.824l-58.742 128.981h-71.026V304.108h49.613zm357.998.257v128.991h1.834l61.095-128.991h68.666v195.828h-49.606V371.212h-1.827l-58.75 128.981h-71.019V304.365h49.607zm12.797-54.306c0 6.791 1.739 11.406 5.221 13.839 3.48 2.438 9.657 3.659 18.537 3.659 8.879 0 15.057-1.178 18.544-3.525 3.48-2.353 5.221-7.01 5.221-13.972h21.926c0 16.362-4.089 27.419-12.27 33.161-6.441 4.521-17.58 6.789-33.422 6.789-16.184 0-27.331-2.174-33.422-6.524-8.175-5.749-12.269-16.883-12.269-33.425h21.934zM1250.093 801.147c11.69 0 21.74 3.782 30.149 11.335 8.401 7.546 12.611 17.366 12.611 29.449 0 12.088-4.209 21.903-12.611 29.457-8.409 7.554-18.459 11.333-30.149 11.333h-53.786V741.642h82.359v17.339h-64.235v42.166h35.662zm.785 64.235c7.095 0 12.774-2.396 17.047-7.196 4.265-4.793 6.404-10.206 6.404-16.254 0-6.034-2.139-11.464-6.404-16.255-4.272-4.793-9.951-7.191-17.047-7.191h-36.447v46.896h36.447zm279.207-106.401h-64.235v44.735h57.93v16.939h-57.93v44.728h64.235v17.339h-82.359v-141.08h82.359v17.339zm206.892 123.74h-18.132v-123.74h-39.401v-17.339h96.938v17.339h-39.406v123.74h.001zm259.499-144.231c20.489 0 37.695 7.161 51.624 21.483 13.922 14.314 20.876 31.719 20.876 52.208 0 20.62-6.927 38.06-20.779 52.311-13.864 14.257-31.105 21.382-51.722 21.382-20.628 0-37.868-7.126-51.717-21.382-13.867-14.251-20.791-31.691-20.791-52.311 0-20.617 6.924-38.057 20.791-52.309 13.85-14.257 31.091-21.382 51.718-21.382zm-38.424 114.281c10.508 10.508 23.317 15.764 38.424 15.764 15.105 0 27.879-5.292 38.321-15.862s15.663-24.072 15.663-40.493c0-16.418-5.221-29.92-15.663-40.49-10.442-10.571-23.217-15.862-38.321-15.862-15.107 0-27.889 5.291-38.324 15.862-10.442 10.57-15.671 24.072-15.671 40.49.001 16.421 5.194 29.95 15.571 40.591zm268.166 29.95V741.642h18.132v60.489h70.533v-60.489h18.129v141.079h-18.129V819.08h-70.533v63.642h-18.132v-.001zm269.549 0V741.642h18.124v60.489h70.541v-60.489h18.124v141.079h-18.124V819.08h-70.541v63.642h-18.124v-.001zm323.336-81.574c11.69 0 21.74 3.782 30.149 11.335 8.402 7.546 12.611 17.366 12.611 29.449 0 12.088-4.209 21.903-12.611 29.457-8.409 7.554-18.458 11.333-30.149 11.333h-53.786V741.642h18.124v59.505h35.662zm.784 64.235c7.098 0 12.782-2.396 17.047-7.196 4.272-4.793 6.404-10.206 6.404-16.254 0-5.905-2.131-11.29-6.404-16.156-4.265-4.856-9.949-7.289-17.047-7.289h-36.447v46.896h36.447v-.001zm56.162 17.339V741.642h18.124v141.079h-18.124zm289.64-141.079v141.079h-18.124v-87.88l.785-27.187h-.785l-71.723 115.067h-18.914V741.642h18.129v82.566l-.782 27.182h.782l68.565-109.748h22.067zm-80.389-35.463h14.586c0 3.153.984 5.812 2.952 7.974 1.97 2.176 4.594 3.261 7.883 3.261 3.15 0 5.712-1.122 7.679-3.354 1.978-2.232 2.954-4.856 2.954-7.881h14.385c0 6.962-2.489 12.838-7.488 17.638-4.984 4.794-10.834 7.184-17.53 7.184-6.698 0-12.611-2.39-17.731-7.184-5.128-4.8-7.69-10.675-7.69-17.638zm323.534 179.695c-9.066 0-17.86-2.823-26.397-8.474-8.545-5.649-14.458-14.058-17.739-25.22l16.556-6.897c2.104 7.36 5.576 13.074 10.442 17.14 4.856 4.071 10.571 6.112 17.138 6.112 7.355 0 13.696-2.297 19.015-6.897 5.322-4.6 7.981-10.314 7.981-17.148 0-6.695-2.722-12.339-8.18-16.939-5.45-4.6-11.982-6.897-19.601-6.897h-11.625v-16.939h10.241c7.098 0 12.976-1.975 17.641-5.921 4.662-3.938 6.99-9.194 6.99-15.764 0-6.17-2.262-11.033-6.799-14.571-4.529-3.55-10.143-5.327-16.846-5.327-11.554 0-19.372 5.848-23.446 17.538l-16.748-7.088c2.627-7.226 7.289-13.668 13.987-19.317 6.706-5.649 15.434-8.472 26.206-8.472 12.088 0 22.137 3.515 30.149 10.54 8.009 7.025 12.017 15.927 12.017 26.696 0 13.011-6.042 22.661-18.124 28.966v.793c6.57 2.753 11.982 6.96 16.254 12.609 4.268 5.649 6.399 12.347 6.399 20.092 0 11.954-4.393 21.848-13.195 29.658-8.8 7.819-19.576 11.727-32.316 11.727zm191.914-3.153l53.202-141.079h20.492l53.199 141.079h-20.099l-13.595-38.231h-59.306l-13.794 38.231h-20.099zm39.999-55.169h46.896l-23.053-63.641h-.793l-23.05 63.641zm237.823 55.169V741.642h51.033c11.033 0 20.585 3.643 28.664 10.94 8.082 7.289 12.12 16.448 12.12 27.482 0 6.706-1.741 12.611-5.221 17.732-3.482 5.128-8.11 9-13.887 11.625v.793c6.96 2.36 12.674 6.434 17.138 12.219 4.466 5.777 6.698 12.475 6.698 20.091 0 11.562-4.237 21.148-12.704 28.765-8.479 7.619-18.486 11.433-30.048 11.433h-53.793v-.001zm18.124-80.59h32.909c6.834 0 12.317-2.26 16.456-6.796 4.129-4.529 6.205-9.486 6.205-14.871s-2.005-10.314-6.013-14.78c-4.008-4.471-9.292-6.703-15.862-6.703h-33.694v43.15h-.001zm0 63.251h36.454c6.96 0 12.611-2.433 16.947-7.297 4.335-4.856 6.497-10.178 6.497-15.955 0-5.777-2.232-11.069-6.695-15.862-4.466-4.793-10.306-7.189-17.533-7.189h-35.669v46.303h-.001zM4195.6 738.49c20.492 0 37.702 7.161 51.624 21.483 13.924 14.314 20.884 31.719 20.884 52.208 0 20.62-6.924 38.06-20.784 52.311-13.859 14.257-31.097 21.382-51.725 21.382-20.62 0-37.858-7.126-51.717-21.382-13.857-14.251-20.784-31.691-20.784-52.311 0-20.617 6.927-38.057 20.784-52.309 13.86-14.257 31.098-21.382 51.718-21.382zm-38.414 114.281c10.505 10.508 23.31 15.764 38.415 15.764 15.107 0 27.881-5.292 38.331-15.862 10.442-10.57 15.663-24.072 15.663-40.493 0-16.418-5.221-29.92-15.663-40.49-10.45-10.571-23.224-15.862-38.331-15.862-15.105 0-27.879 5.291-38.314 15.862-10.449 10.57-15.67 24.072-15.67 40.49-.001 16.421 5.184 29.95 15.569 40.591zm279.199 59.9h-17.339v-47.289h13.793c12.219-10.505 18.194-28.508 17.925-53.992v-69.748h94.183v123.74h15.764v47.289h-17.339v-29.95h-106.987v29.95zm32.509-101.281c.264 22.331-4.207 40.334-13.394 53.992h71.318V758.981h-57.925v52.409zM1196.257 615.391h3364.854v19.1H1196.257z" fill-rule="evenodd" clip-rule="evenodd" fill="#FFF"/></svg>