<svg xmlns="http://www.w3.org/2000/svg" width="1878.037" height="1681.551" viewBox="0 0 1878.037 1681.551"><path fill-rule="evenodd" clip-rule="evenodd" fill="#E7AD22" d="M444.925 0h988.192v1189.007l-495.72-145.723-492.472 145.723z"/><path fill-rule="evenodd" clip-rule="evenodd" fill="#202020" d="M959.132 147.01l-.477.465h.477v-.465zm-21.831 750.299l383.134 199.023-383.134-108.164-384.452 108.164 384.452-199.023zm228.239-452.894l129.222 114.486-128.781-92.464-.441-22.022zm8.762 439.439l.441 22.245 150.481 77.033-150.922-99.278zm-1.115-55.851l.442 22.206 147.637 77.797-148.079-100.003zm-1.139-57.241l145.369 103.645-144.927-81.444-.442-22.201zm-1.09-54.666l.437 22.158 142.216 83.18-142.653-105.338zm-1.104-55.142l139.956 107.53-139.513-85.402-.443-22.128zm-1.11-55.669l.447 22.169 136.853 88.57-137.3-110.739zm-1.059-53.117l.442 22.082 134.087 88.471-134.529-110.553zm-1.079-54.341l.438 22.113 131.461 91.102-131.899-113.215zm-452.194-24.523L585.19 587.786l128.784-92.46.438-22.022zm-8.761 439.439l-150.922 99.279 150.481-77.034.441-22.245zm1.119-55.852L558.69 956.895l147.633-77.801.447-22.203zm1.138-57.24L562.54 903.296l144.927-81.447.441-22.198zm1.091-54.666l-.442 22.158-142.215 83.18 142.657-105.338zm1.098-55.146l-139.95 107.535 139.509-85.402.441-22.133zm1.111-55.665l-.441 22.165-136.859 88.57 137.3-110.735zm1.059-53.121l-.437 22.082-134.088 88.475 134.525-110.557zm1.082-54.337l-.441 22.113-131.456 91.098 131.897-113.211zm227.91 264.269L729.464 894.308l-1.122 30.803 212.916-103.872v-12.7l205.507 88.563-205.506-106.117zm0-78.504l204.397 118.03-204.397-100.469v12.698L730.775 858.476l1.126-30.875 209.358-115.12zm0-78.434L734.377 759.695l-1.126 30.944 208.008-126.336v-12.7l201.459 109.609-201.459-127.165zm0-79.82l-204.35 136.176-1.135 31.011 205.484-136.933v-12.698l199.448 122.674-199.447-140.23zm0-76.938l197.435 148.78-197.435-131.221v12.7L738.215 654.601l1.133-31.08 201.911-146.232zm0-78.988l195.419 160.114-195.419-142.559v12.7l-200.58 158.582 1.139-31.154 199.441-157.683zm0-76.317l-196.91 164.588-1.139 31.211 198.048-165.544v-12.695l193.382 150.464-193.381-168.024zm0-77.87L746.777 420.067l-1.143 31.29 195.624-176.99V261.67l189.361 160.934-189.36-178.49zm0-79.629l189.361 190.628L941.259 182.04v12.695L748.11 383.551l1.147-31.376 192.002-187.69z"/><path fill-rule="evenodd" clip-rule="evenodd" fill="#FFF" d="M79.717 1341.891v22.735h-50.57v19.674h27.105c11.465 0 19.94 2.599 25.43 7.794 5.49 5.199 8.232 13.77 8.232 25.721 0 11.95-2.866 20.596-8.599 25.943-5.342 5.051-13.698 7.575-25.064 7.575H0v-109.442h79.717zm-50.57 65.14v21.572h20.255c4.275 0 7.237-.733 8.89-2.189 1.652-1.458 2.48-4.229 2.48-8.305 0-4.375-.805-7.313-2.409-8.817-1.601-1.51-4.587-2.261-8.961-2.261H29.147zm184.223-65.14v72.137h1.02l34.099-72.137h38.328v109.442h-27.69v-71.989h-1.02l-32.786 71.989h-39.642v-109.442h27.691zm201.272 0v84.089h28.273v-84.089h29.143v84.089h28.268v-84.089h29.147v109.442H385.495v-109.442h29.147zm242.658 0v41.241h8.741l28.129-41.241h35.262l-38.471 53.774 41.68 55.667h-36.143l-30.458-42.846h-8.74v42.846h-29.149V1341.89H657.3v.001zm193.692 23.902v20.106h46.636v20.26h-46.636v21.273h50.713v23.901h-79.86v-109.442h78.841v23.902h-49.694zm178.685-23.902v41.241h8.742l28.125-41.241h35.266l-38.471 53.774 41.679 55.667h-36.141l-30.458-42.846h-8.742v42.846h-29.148V1341.89h29.148v.001zm257.812 39.347h-30.02v-4.227c0-3.981-1.751-6.848-5.247-8.595-2.814-1.362-7.041-2.043-12.676-2.043-7.87 0-12.974 1.505-15.306 4.519-1.942 2.524-2.914 7.965-2.914 16.321v17.05c0 9.131.829 15.007 2.48 17.63 2.33 3.695 7.577 5.537 15.74 5.537 6.7 0 11.172-.677 13.405-2.038 3.01-1.847 4.518-5.733 4.518-11.661v-3.204h30.02v3.204c0 15.256-3.133 25.578-9.398 30.968-6.266 5.394-18.046 8.089-35.339 8.089-12.245 0-21.082-.629-26.524-1.895-8.161-1.944-14.232-5.728-18.216-11.37-4.472-6.41-6.704-15.979-6.704-28.707v-28.271c0-16.807 4.567-28.221 13.698-34.248 7.29-4.852 19.869-7.28 37.746-7.28 15.351 0 26.426 2.472 33.224 7.428 7.676 5.537 11.513 15.059 11.513 28.563v4.23zm124.912-39.347v41.241h8.742l28.128-41.241h35.262l-38.471 53.774 41.68 55.667H1451.6l-30.456-42.846h-8.742v42.846h-29.149V1341.89h29.148v.001zm192.236 0v72.137h1.018l34.101-72.137h38.328v109.442h-27.691v-71.989h-1.02l-32.786 71.989h-39.641v-109.442h27.691zm199.815.143v71.994h1.02l34.099-71.994h38.328v109.298h-27.691v-71.989h-1.018l-32.788 71.989h-39.641v-109.298h27.691zm7.141-30.31c0 3.79.972 6.366 2.91 7.724 1.944 1.361 5.394 2.042 10.35 2.042 4.953 0 8.404-.657 10.347-1.967 1.942-1.313 2.914-3.913 2.914-7.798h12.24c0 9.132-2.281 15.303-6.85 18.508-3.595 2.524-9.814 3.789-18.651 3.789-9.036 0-15.254-1.213-18.654-3.641-4.566-3.209-6.851-9.423-6.851-18.656h12.245zM30.052 1619.305c6.525 0 12.129 2.111 16.823 6.327 4.689 4.212 7.039 9.693 7.039 16.436 0 6.747-2.349 12.225-7.039 16.441-4.693 4.216-10.298 6.325-16.823 6.325H.028v-78.741h45.967v9.677H10.144v23.534h19.908v.001zm.438 35.852c3.956 0 7.128-1.337 9.51-4.017 2.383-2.675 3.574-5.696 3.574-9.072 0-3.367-1.191-6.398-3.574-9.072-2.382-2.675-5.554-4.013-9.51-4.013H10.144v26.174H30.49zm155.83-59.386h-35.852v24.968h32.333v9.454h-32.333v24.964h35.852v9.678h-45.967v-78.741h45.967v9.677zm115.472 69.063h-10.114v-69.064h-21.995v-9.677h54.104v9.677h-21.995v69.064zm144.836-80.5c11.437 0 21.039 3.997 28.813 11.99 7.772 7.989 11.656 17.703 11.656 29.139 0 11.509-3.869 21.242-11.6 29.197-7.735 7.957-17.361 11.934-28.869 11.934-11.509 0-21.134-3.977-28.865-11.934-7.734-7.954-11.604-17.688-11.604-29.197 0-11.507 3.87-21.241 11.604-29.195 7.731-7.957 17.356-11.934 28.865-11.934zm-21.444 63.784c5.863 5.865 13.013 8.798 21.445 8.798s15.562-2.954 21.39-8.853c5.832-5.9 8.742-13.436 8.742-22.6 0-9.163-2.91-16.699-8.742-22.599-5.828-5.9-12.958-8.853-21.39-8.853s-15.56 2.954-21.388 8.853c-5.828 5.9-8.742 13.436-8.742 22.599-.001 9.165 2.893 16.716 8.685 22.655zm149.676 16.716v-78.741h10.115v33.761h39.37v-33.761h10.116v78.741h-10.116v-35.521h-39.37v35.521H574.86zm150.44 0v-78.741h10.116v33.761h39.37v-33.761h10.12v78.741h-10.12v-35.521h-39.37v35.521H725.3zm180.469-45.529c6.525 0 12.134 2.111 16.823 6.327 4.689 4.212 7.039 9.693 7.039 16.436 0 6.747-2.349 12.225-7.039 16.441-4.689 4.216-10.298 6.325-16.823 6.325h-30.024v-78.741h10.116v33.212h19.908zm.438 35.852c3.956 0 7.128-1.337 9.51-4.017 2.385-2.675 3.574-5.696 3.574-9.072 0-3.296-1.19-6.301-3.574-9.017-2.382-2.71-5.554-4.068-9.51-4.068h-20.346v26.174h20.346zm31.341 9.677v-78.741h10.116v78.741h-10.116zm161.659-78.74v78.741h-10.116v-49.049l.438-15.174h-.438l-40.027 64.223h-10.558v-78.741h10.116v46.083l-.438 15.171h.438l38.271-61.254h12.314zm-44.868-19.793h8.14c0 1.76.55 3.244 1.649 4.45 1.098 1.215 2.567 1.82 4.398 1.82 1.76 0 3.189-.626 4.287-1.872 1.102-1.245 1.653-2.71 1.653-4.398h8.025c0 3.886-1.389 7.165-4.175 9.844-2.788 2.675-6.047 4.01-9.79 4.01-3.737 0-7.037-1.334-9.897-4.01-2.862-2.68-4.29-5.959-4.29-9.844zm180.579 100.293c-5.064 0-9.972-1.576-14.737-4.73-4.769-3.153-8.065-7.846-9.896-14.076l9.235-3.849c1.175 4.108 3.118 7.297 5.828 9.567 2.716 2.272 5.904 3.411 9.571 3.411 4.104 0 7.642-1.283 10.609-3.849 2.97-2.567 4.455-5.756 4.455-9.571 0-3.737-1.521-6.887-4.561-9.454-3.046-2.567-6.692-3.849-10.944-3.849h-6.488v-9.454h5.716c3.962 0 7.241-1.102 9.845-3.304 2.604-2.198 3.906-5.132 3.906-8.798 0-3.443-1.265-6.158-3.793-8.133-2.532-1.981-5.665-2.973-9.403-2.973-6.453 0-10.815 3.263-13.089 9.788l-9.347-3.956c1.469-4.033 4.068-7.629 7.811-10.781 3.737-3.153 8.614-4.728 14.625-4.728 6.744 0 12.353 1.962 16.823 5.883 4.476 3.921 6.709 8.89 6.709 14.9 0 7.262-3.372 12.647-10.116 16.167v.442c3.667 1.536 6.692 3.884 9.072 7.037 2.385 3.153 3.575 6.891 3.575 11.214 0 6.672-2.456 12.194-7.369 16.553-4.916 4.362-10.928 6.543-18.037 6.543zm107.113-1.76l29.688-78.741h11.437l29.694 78.741h-11.218l-7.588-21.338h-33.101l-7.699 21.338h-11.213zm22.32-30.792h26.174l-12.865-35.52h-.438l-12.871 35.52zm132.743 30.792v-78.741h28.479c6.158 0 11.492 2.033 16.003 6.106 4.507 4.069 6.759 9.181 6.759 15.339 0 3.743-.97 7.039-2.91 9.897-1.942 2.862-4.531 5.023-7.755 6.488v.442c3.886 1.317 7.074 3.591 9.567 6.819 2.495 3.225 3.741 6.963 3.741 11.214 0 6.453-2.363 11.803-7.093 16.055-4.729 4.252-10.318 6.381-16.771 6.381h-30.02zm10.115-44.98h18.363c3.813 0 6.874-1.261 9.183-3.793 2.309-2.528 3.463-5.294 3.463-8.3s-1.118-5.756-3.355-8.249c-2.233-2.496-5.183-3.741-8.85-3.741h-18.804v24.083zm0 35.303h20.342c3.889 0 7.041-1.358 9.458-4.073 2.42-2.71 3.63-5.68 3.63-8.905 0-3.224-1.25-6.178-3.743-8.853-2.491-2.676-5.752-4.012-9.784-4.012h-19.904v25.843h.001zm166.83-70.823c11.437 0 21.039 3.997 28.813 11.99 7.77 7.989 11.652 17.703 11.652 29.139 0 11.509-3.865 21.242-11.6 29.197-7.735 7.957-17.357 11.934-28.865 11.934-11.513 0-21.134-3.977-28.869-11.934-7.735-7.954-11.6-17.688-11.6-29.197 0-11.507 3.865-21.241 11.6-29.195 7.735-7.957 17.356-11.934 28.869-11.934zm-21.445 63.784c5.863 5.865 13.013 8.798 21.444 8.798s15.562-2.954 21.388-8.853c5.828-5.9 8.742-13.436 8.742-22.6 0-9.163-2.914-16.699-8.742-22.599-5.827-5.9-12.957-8.853-21.388-8.853s-15.566 2.954-21.39 8.853c-5.828 5.9-8.745 13.436-8.745 22.599.001 9.165 2.898 16.716 8.691 22.655zm155.831 33.433h-9.677v-26.394h7.699c6.82-5.863 10.155-15.911 10.007-30.135v-38.929h52.568v69.063h8.794v26.394h-9.677v-16.716h-59.713v16.717h-.001zm18.148-56.529c.143 12.464-2.348 22.512-7.48 30.135h39.808v-59.386h-32.328v29.251zM0 1515.628h1878.037v10.66H0z"/></svg>